PathFileType	4	(X/Y/Z)	C:\Git\research_data\Projects\squatting_fais\c3dfiles\036\SJ_pre2\markers_experimental.trc
DataRate	CameraRate	NumFrames	NumMarkers	Units	OrigDataRate	OrigDataStartFrame	OrigNumFrames
200.000000	200.000000	4	62	mm	200.000000	0	1677
Frame#	Time	FHD			LBHD			RBHD			C7			T10			CLAV			LSHO			LUUPA			LMUPA			LDUPA			LLEP			LMEP			LRAD			LUL			LRFIN			RSHO			RUPA1			RMUPA			RDUPA			RLEP			RMEP			RRAD			RUL			RUFIN			LASI			RASI			USACR			LSACR			RSACR			LTHI1			LTHI2			LTHI3			LTHI4			LLFC			LMFC			LTIB1			LTIB2			LTIB3			LTIB4			LLMAL			LMMAL			LHEE			LMT1			LMT2			LMT5			RTHI			RTHI2			RTHI3			RTHI4			RLFC			RMFC			RTIB1			RTIB2			RTIB3			RTIB4			RLMAL			RMMAL			RHEE			RMT1			RMT2			RMT5			*61			
		X1	Y1	Z1	X2	Y2	Z2	X3	Y3	Z3	X4	Y4	Z4	X5	Y5	Z5	X6	Y6	Z6	X7	Y7	Z7	X8	Y8	Z8	X9	Y9	Z9	X10	Y10	Z10	X11	Y11	Z11	X12	Y12	Z12	X13	Y13	Z13	X14	Y14	Z14	X15	Y15	Z15	X16	Y16	Z16	X17	Y17	Z17	X18	Y18	Z18	X19	Y19	Z19	X20	Y20	Z20	X21	Y21	Z21	X22	Y22	Z22	X23	Y23	Z23	X24	Y24	Z24	X25	Y25	Z25	X26	Y26	Z26	X27	Y27	Z27	X28	Y28	Z28	X29	Y29	Z29	X30	Y30	Z30	X31	Y31	Z31	X32	Y32	Z32	X33	Y33	Z33	X34	Y34	Z34	X35	Y35	Z35	X36	Y36	Z36	X37	Y37	Z37	X38	Y38	Z38	X39	Y39	Z39	X40	Y40	Z40	X41	Y41	Z41	X42	Y42	Z42	X43	Y43	Z43	X44	Y44	Z44	X45	Y45	Z45	X46	Y46	Z46	X47	Y47	Z47	X48	Y48	Z48	X49	Y49	Z49	X50	Y50	Z50	X51	Y51	Z51	X52	Y52	Z52	X53	Y53	Z53	X54	Y54	Z54	X55	Y55	Z55	X56	Y56	Z56	X57	Y57	Z57	X58	Y58	Z58	X59	Y59	Z59	X60	Y60	Z60	X61	Y61	Z61	X62	Y62	Z62	

1	0	-227.1785583496094	1541.579467773438	-936.9025878906252	-395.5888977050782	1491.343383789063	-996.3082275390627	-338.6160278320313	1495.30419921875	-854.9250488281252	-428.2622680664064	1378.904541015625	-962.1953735351565	-443.9020080566407	1068.503051757813	-948.162048339844	-283.3779602050782	1317.83740234375	-941.3890380859377	-324.7020263671876	1354.160888671875	-1091.544311523438	-372.5743713378907	1221.051879882813	-1217.313598632813	-338.1119689941407	1185.424926757813	-1216.501831054688	-381.9451293945313	1160.003173828125	-1249.774047851563	-383.5368041992188	1104.165283203125	-1262.862670898438	-441.4124145507814	1093.928466796875	-1227.998657226563	-269.3050537109376	902.3552856445315	-1210.650390625	-300.8092346191407	922.4860839843752	-1150.777587890625	-274.7736511230469	865.3236083984377	-1122.020874023438	-343.8896789550782	1359.546142578125	-794.9146728515627	-397.9026184082032	1246.21728515625	-680.6182250976564	-358.8242797851563	1216.82177734375	-675.0084228515626	-398.4526367187501	1187.696044921875	-641.7791137695314	-392.8310852050782	1119.815185546875	-616.8952636718751	-448.4320068359376	1090.20263671875	-661.5327148437501	-305.9112854003907	938.200134277344	-727.1635742187501	-267.3709716796876	926.6018676757815	-673.7203369140626	-279.6641540527344	888.6130371093752	-762.4105834960939	-258.1869201660157	875.043395996094	-1061.895629882813	-279.0742797851563	884.7654418945315	-797.1823730468752	-452.8201599121095	983.0296020507815	-950.7734375000002	-470.2442932128907	955.4161376953127	-977.1726684570315	-475.749237060547	960.533874511719	-922.248474121094	-350.7986145019532	746.8381958007814	-1146.241577148438	-327.1720581054688	665.7990112304689	-1145.292114257813	-284.2739868164063	666.1496582031251	-1125.639526367188	-360.7126159667969	616.5557861328126	-1145.240478515625	-412.1643981933595	466.8669433593751	-1129.030395507813	-401.2600097656251	421.1172485351564	-983.2820434570315	-346.5470275878907	282.3890075683594	-1075.540161132813	-372.1755981445313	250.9114074707032	-1153.736083984375	-347.9638366699219	241.5321044921876	-1115.559448242188	-352.4813232421876	158.9162902832032	-1096.303344726563	-404.9981689453126	83.17904663085939	-1160.732055664063	-385.6303100585939	83.48422241210939	-1077.450927734375	-456.6140747070314	55.59589767456056	-1128.167236328125	-267.9854431152344	54.25378799438478	-1090.675170898438	-253.2362670898438	55.09846878051759	-1138.060546875	-292.3574523925782	35.08325195312501	-1189.21875	-417.492156982422	707.8579711914064	-732.2325439453126	-379.7574462890626	653.1345825195314	-722.1099853515626	-347.1945800781251	657.3015136718751	-720.2007446289064	-403.1659240722657	574.0712280273439	-734.0003662109376	-392.5279235839845	462.7294006347657	-738.7699584960939	-358.2951965332032	442.9263000488282	-882.0574951171877	-342.3787536621094	308.3074645996094	-757.4926147460939	-412.0786437988282	236.4476470947266	-707.1434326171876	-367.4971618652344	233.3404998779297	-721.4925537109376	-354.1279602050782	180.8947906494141	-745.9603271484376	-423.2169189453126	81.94641876220705	-719.4801635742189	-387.8368530273439	86.58081817626955	-794.2669677734377	-462.9797363281251	53.13619613647462	-757.4846801757814	-266.3626403808594	53.37366104125978	-763.8491821289064	-268.4359436035157	58.00494766235353	-713.0854492187501	-308.0034484863282	35.10364151000977	-668.2627563476564	nan	nan	nan	
2	0.005	-227.2775878906251	1541.405029296875	-936.7012329101565	-395.6311645507814	1491.41357421875	-996.2237548828127	-338.6915588378907	1495.201538085938	-854.8055419921877	-428.289520263672	1378.825317382813	-962.2708129882815	-443.8518676757814	1068.419189453125	-948.1724853515627	-283.3988037109376	1317.759765625	-941.3594360351565	-324.7325134277344	1354.1220703125	-1091.486694335938	-372.5374755859376	1221.011474609375	-1217.318359375	-338.0844421386719	1185.380859375	-1216.484985351563	-381.7620239257813	1159.85693359375	-1249.754150390625	-383.4180908203126	1104.06640625	-1262.802490234375	-441.2340087890626	1093.845092773438	-1227.966674804688	-269.0480041503907	902.2532348632815	-1210.5537109375	-300.5953674316407	922.4121704101565	-1150.687133789063	-274.6978149414063	865.2547607421877	-1121.966064453125	-344.0614318847657	1359.433837890625	-794.8912353515627	-398.161834716797	1246.095703125	-680.6101074218751	-359.0124816894532	1216.776977539063	-674.9684448242189	-398.5592651367189	1187.605224609375	-641.7974243164064	-392.991180419922	1119.727783203125	-616.9192504882814	-448.5238342285157	1090.087890625	-661.5748901367189	-305.8662414550782	938.1580810546877	-727.1340332031251	-267.3721618652344	926.5810546875002	-673.5440063476564	-279.5743408203126	888.5948486328127	-762.3435668945314	-258.0961303710938	874.9658203125002	-1061.8291015625	-278.9792175292969	884.7457275390627	-797.2224731445315	-452.7208251953126	982.6975097656252	-950.696960449219	-471.4454956054689	956.1044921875002	-977.0222778320315	-476.2628479003907	960.3870849609377	-922.3947753906252	-350.8467712402344	746.7770385742189	-1146.208129882813	-327.1921386718751	665.7363891601564	-1145.248291015625	-284.3208312988282	666.0516357421876	-1125.546752929688	-360.8006286621094	616.4985351562501	-1145.209594726563	-412.8793029785157	466.9041137695314	-1128.86083984375	-401.5458068847657	421.1221008300782	-983.280700683594	-346.8843688964844	282.5288085937501	-1075.569946289063	-372.3601074218751	251.0087127685547	-1153.717529296875	-348.2367248535157	241.6095275878907	-1115.602294921875	-352.7126464843751	158.9192352294922	-1096.319458007813	-405.0398254394532	83.17221069335939	-1160.724609375	-385.6025695800782	83.47909545898439	-1077.462158203125	-456.634246826172	55.61631011962892	-1128.159790039063	-267.9835510253907	54.23400115966798	-1090.672485351563	-253.2569122314454	55.11255264282228	-1138.107543945313	-292.3373718261719	35.09801864624024	-1189.204833984375	-417.5003967285157	707.9289550781251	-732.1954956054689	-379.7908325195313	653.1569824218751	-722.1110839843751	-347.2047424316407	657.2810058593751	-720.2321166992189	-403.3288879394532	574.0930175781251	-733.9424438476564	-392.6536865234376	462.711639404297	-738.7384033203126	-358.8934936523438	443.0842285156251	-881.8032226562502	-342.5182495117188	308.4310913085938	-757.5497436523439	-412.1749877929689	236.4700622558594	-707.1375122070314	-367.5567932128907	233.3855285644532	-721.5001220703126	-354.2397460937501	180.9107055664063	-745.9658813476564	-423.2297973632814	81.94237518310548	-719.4686279296876	-387.8629455566407	86.55517578125001	-794.2758789062502	-463.0551147460939	53.14894866943361	-757.4946289062501	-266.3869323730469	53.40588378906251	-763.8596801757814	-268.4858093261719	57.97225189208986	-713.1031494140626	-308.0255432128907	35.13130950927735	-668.2316284179689	nan	nan	nan	
3	0.01	-227.2977600097657	1541.327758789063	-936.4475708007815	-395.0691833496095	1491.453735351563	-996.187683105469	-338.8451232910157	1495.062866210938	-854.6833496093752	-428.4116516113282	1378.78857421875	-962.2293090820315	-443.802947998047	1068.363647460938	-948.213073730469	-283.4475708007813	1317.672973632813	-941.3231201171877	-324.4325866699219	1354.007446289063	-1091.3564453125	-372.4845581054688	1220.961181640625	-1217.289916992188	-337.9845886230469	1185.311279296875	-1216.443237304688	-381.6238403320313	1159.733154296875	-1249.703125	-383.2592468261719	1103.984375	-1262.784790039063	-441.0957641601564	1093.718505859375	-1227.936401367188	-268.9762573242188	902.1770629882815	-1210.453857421875	-300.4334106445313	922.3582153320315	-1150.588989257813	-274.5955505371094	865.2062988281252	-1121.842407226563	-344.2961425781251	1359.3544921875	-794.7999267578127	-398.4667053222657	1245.9306640625	-680.5640258789064	-359.0976562500001	1216.752685546875	-674.9620361328126	-398.7855224609376	1187.45654296875	-641.7567749023439	-393.1528930664064	1119.606567382813	-616.9145507812501	-448.5400390625001	1089.937133789063	-661.6231689453126	-305.8006896972657	938.127624511719	-727.0642700195314	-267.3410949707032	926.547790527344	-673.4384155273439	-279.4562072753907	888.5670166015627	-762.2299194335939	-257.9972229003907	874.8751220703127	-1061.77978515625	-278.8683166503907	884.7409667968752	-797.1230468750002	-452.6635131835939	982.6839599609377	-950.6835937500002	-470.0003662109376	955.4590454101565	-977.157165527344	-475.4463806152345	960.5264282226565	-922.2108154296877	-350.6683654785157	746.7358398437501	-1146.197631835938	-327.3566284179688	665.6589355468751	-1145.200073242188	-284.4264526367188	665.9304809570314	-1125.5146484375	-360.9465942382813	616.4666748046876	-1145.205200195313	-413.236785888672	466.9166870117189	-1128.849365234375	-402.009735107422	421.1267089843751	-983.2178955078127	-347.0204467773438	282.6487121582032	-1075.590209960938	-372.6244506835938	251.0705261230469	-1153.734375	-348.6814880371094	241.5428009033204	-1115.596801757813	-353.3260498046876	159.4130249023438	-1096.2919921875	-405.0288391113282	83.1456985473633	-1160.724975585938	-385.6174621582032	83.48117828369142	-1077.453369140625	-456.6552734375001	55.58821105957033	-1128.170043945313	-268.0058593750001	54.25012588500978	-1090.687622070313	-253.2850952148438	55.10946655273439	-1138.101684570313	-292.3765258789063	35.08580398559571	-1189.20556640625	-417.4337158203126	707.9383544921876	-732.1932983398439	-379.7679748535157	653.1401977539064	-722.1278076171876	-347.2090759277344	657.2133789062501	-720.2155761718751	-403.3108215332032	574.3631591796876	-733.8053588867189	-392.8233642578126	462.6788940429689	-738.7175903320314	-359.3055114746094	443.0379638671876	-881.8125000000002	-342.7013854980469	308.5190124511719	-757.5407104492189	-412.344207763672	236.4620208740235	-707.1603393554689	-367.7255859375001	233.3978881835938	-721.4887084960939	-354.3177795410157	180.905502319336	-745.9260253906251	-423.2240295410157	81.92672729492189	-719.4656372070314	-387.8756713867189	86.58475494384767	-794.288269042969	-463.060516357422	53.10633850097658	-757.4914550781251	-266.3575134277344	53.45753097534181	-763.8585205078126	-268.4415283203126	58.01900863647462	-713.1045532226564	-308.0062866210938	35.13762283325196	-668.2341918945314	nan	nan	nan	
4	0.015	-227.2881164550782	1541.254638671875	-936.3025512695315	-395.6172180175782	1491.44140625	-996.1320800781252	-338.9766235351563	1494.948608398438	-854.6179809570315	-428.459686279297	1378.635498046875	-962.2402954101565	-443.769500732422	1068.29052734375	-948.2019653320315	-283.4535522460938	1317.590209960938	-941.3205566406252	-324.8071899414063	1354.062133789063	-1091.408203125	-372.3798828125001	1220.91650390625	-1217.272827148438	-337.9550781250001	1185.241821289063	-1216.40283203125	-381.4760437011719	1159.5283203125	-1249.620849609375	-383.1935424804688	1103.92333984375	-1262.76953125	-440.9966430664064	1093.636352539063	-1227.935913085938	-268.7393798828126	902.1334228515627	-1210.288818359375	-300.3220825195313	922.309020996094	-1150.51904296875	-274.5274963378907	865.1360473632815	-1121.758666992188	-344.5715942382813	1359.256591796875	-794.7075805664065	-398.7153625488282	1245.8056640625	-680.6004638671876	-359.4191894531251	1216.586303710938	-674.9693603515626	-399.0287170410157	1187.36572265625	-641.7786865234376	-393.3187255859376	1119.461547851563	-616.8941040039064	-448.7036132812501	1089.80859375	-661.6527099609376	-305.7526245117188	938.0855712890627	-726.9437866210939	-267.3545532226563	926.5341796875002	-673.3407592773439	-279.4159545898438	888.5275878906252	-762.1364135742189	-257.9674072265626	874.7534790039065	-1061.670654296875	-278.6384582519532	884.6827392578127	-797.0967407226565	-452.5258789062501	982.6835937500002	-950.742858886719	-469.9112243652345	955.4329223632815	-977.1775512695315	-475.3389282226564	960.539733886719	-922.2542114257815	-350.6364440917969	746.6943359375001	-1146.154663085938	-327.3081665039063	665.5437011718751	-1145.127685546875	-284.4517822265626	665.8704223632814	-1125.49072265625	-361.0414428710938	616.4295654296876	-1145.140014648438	-413.5840454101564	466.9316711425782	-1128.830688476563	-402.2550354003907	421.1161499023439	-983.2239379882815	-347.1149902343751	282.7131042480469	-1075.615600585938	-372.7551879882813	251.0234985351563	-1153.75390625	-348.7322692871094	241.6233062744141	-1115.603515625	-352.9378051757813	158.9595336914063	-1096.3935546875	-405.1196899414064	83.16764068603517	-1160.717163085938	-385.6012573242189	83.50121307373048	-1077.47705078125	-456.6437988281251	55.60386657714845	-1128.158203125	-268.0241088867188	54.2667579650879	-1090.693115234375	-253.2568359375001	55.11260223388673	-1138.107666015625	-292.3480834960938	35.06689453125001	-1189.231811523438	-417.3636474609376	707.9605102539064	-732.1859130859376	-379.7914428710938	653.1577758789064	-722.1115722656251	-347.1885681152344	657.2148437500001	-720.1954956054689	-403.6183166503907	574.1835937500001	-733.8695678710939	-392.9735107421876	462.6343078613282	-738.7583007812501	-359.5411071777344	442.9514770507814	-881.7518310546877	-342.8251342773438	308.5613098144532	-757.5954589843751	-412.4656066894532	236.4539031982422	-707.1849365234376	-367.9440307617188	233.4199676513672	-721.4733886718751	-354.3782653808594	180.8812866210938	-745.8430786132814	-423.2575988769532	81.90692138671876	-719.4641723632814	-387.8284606933595	86.58650970458986	-794.2576293945315	-463.1343078613282	53.12424468994142	-757.4888916015626	-266.4093017578126	53.42310714721681	-763.8106079101564	-268.4503784179688	58.0234832763672	-713.0791015625001	-308.0325317382813	35.12335968017579	-668.2119140625001	nan	nan	nan	
